<svg xmlns="http://www.w3.org/2000/svg" viewBox="0 0 199.56 59.73"><defs><style>.cls-1{fill:#fff;}.cls-2{fill:#e53855;}.cls-3{fill:#da774a;}.cls-4{fill:#44ab96;}.cls-5{fill:#ffb017;}.cls-6{fill:#4484ab;}.cls-7{fill:#1a1a1a;}.cls-10,.cls-8,.cls-9{fill:none;stroke-linecap:round;stroke-linejoin:round;stroke-width:4px;}.cls-8{stroke:#f15a24;}.cls-9{stroke:#fff;}.cls-10{stroke:#000;}</style></defs><title>logo</title><g id="Layer_2" data-name="Layer 2"><g id="Layer_1-2" data-name="Layer 1"><rect class="cls-1" width="199.56" height="59.73"/><path class="cls-2" d="M30.62,44.13A8.8,8.8,0,0,1,29.21,49a9.32,9.32,0,0,1-4.11,3.41,15.38,15.38,0,0,1-6.42,1.23A14.34,14.34,0,0,1,11.34,52,9.62,9.62,0,0,1,8,48.75a7.25,7.25,0,0,1-1.28-3.92,2.65,2.65,0,0,1,2.72-2.69,2.3,2.3,0,0,1,1.63.62,4.67,4.67,0,0,1,1.14,1.82A12.13,12.13,0,0,0,13.46,47a5.11,5.11,0,0,0,1.88,1.59,6.89,6.89,0,0,0,3.18.63,7.2,7.2,0,0,0,4.4-1.27,3.81,3.81,0,0,0,1.69-3.14,3.35,3.35,0,0,0-.91-2.43,5.87,5.87,0,0,0-2.36-1.43,38.53,38.53,0,0,0-3.87-1,28.2,28.2,0,0,1-5.42-1.78,8.81,8.81,0,0,1-3.47-2.77A7.22,7.22,0,0,1,7.3,31a7.47,7.47,0,0,1,1.35-4.4,8.55,8.55,0,0,1,3.92-3,16.06,16.06,0,0,1,6-1,15.2,15.2,0,0,1,4.79.68,10.21,10.21,0,0,1,3.35,1.83,7.56,7.56,0,0,1,2,2.39,5.5,5.5,0,0,1,.61,2.44,2.9,2.9,0,0,1-.76,2,2.48,2.48,0,0,1-1.92.87A2.24,2.24,0,0,1,25,32.23a7,7,0,0,1-1.18-1.72,7.71,7.71,0,0,0-2-2.65,5.74,5.74,0,0,0-3.69-1,6.43,6.43,0,0,0-3.81,1,3,3,0,0,0-1.44,2.49A2.52,2.52,0,0,0,13.43,32a4.24,4.24,0,0,0,1.35,1.13,9.75,9.75,0,0,0,1.75.74q.88.26,2.91.78A43,43,0,0,1,24,36a14,14,0,0,1,3.51,1.74,7.17,7.17,0,0,1,2.26,2.6A8.26,8.26,0,0,1,30.62,44.13Z"/><path class="cls-3" d="M46.92,26v8.31A11.9,11.9,0,0,1,49,32.34a7.55,7.55,0,0,1,2.25-1.08,9.36,9.36,0,0,1,2.64-.36,7.66,7.66,0,0,1,3.78.91,7,7,0,0,1,3.4,4.87,17.32,17.32,0,0,1,.2,2.86V50.26a3.75,3.75,0,0,1-.76,2.55,2.64,2.64,0,0,1-2,.86q-2.76,0-2.76-3.41V40.81a8.69,8.69,0,0,0-.8-4.13,3.16,3.16,0,0,0-3-1.45,4.54,4.54,0,0,0-2.7.85,5.13,5.13,0,0,0-1.79,2.33,14.93,14.93,0,0,0-.45,4.45v7.4a3.77,3.77,0,0,1-.75,2.53,2.57,2.57,0,0,1-2.08.88q-2.78,0-2.77-3.41V26a3.82,3.82,0,0,1,.73-2.55,2.52,2.52,0,0,1,2-.85,2.59,2.59,0,0,1,2.08.86A3.76,3.76,0,0,1,46.92,26Z"/><path class="cls-4" d="M93.82,42.28A13.26,13.26,0,0,1,93,46.9a10.1,10.1,0,0,1-2.26,3.63,10,10,0,0,1-3.52,2.33,12.51,12.51,0,0,1-4.62.81,12.24,12.24,0,0,1-4.57-.82,10.06,10.06,0,0,1-5.77-6,13,13,0,0,1-.77-4.61,13.35,13.35,0,0,1,.78-4.65A10.14,10.14,0,0,1,74.54,34a9.85,9.85,0,0,1,3.53-2.31,12.43,12.43,0,0,1,4.57-.81,12.58,12.58,0,0,1,4.62.82,10,10,0,0,1,5.79,6A13.31,13.31,0,0,1,93.82,42.28Zm-5.62,0A8.37,8.37,0,0,0,86.69,37a4.88,4.88,0,0,0-4-1.9,5,5,0,0,0-2.89.85,5.36,5.36,0,0,0-1.93,2.51,10.25,10.25,0,0,0-.67,3.87,10.22,10.22,0,0,0,.66,3.84,5.53,5.53,0,0,0,1.91,2.51,5,5,0,0,0,2.92.87,4.89,4.89,0,0,0,4-1.91A8.36,8.36,0,0,0,88.2,42.28Z"/><path class="cls-5" d="M109.83,45.59v4.67a3.55,3.55,0,0,1-.8,2.55,2.66,2.66,0,0,1-2,.86,2.59,2.59,0,0,1-2-.86,3.71,3.71,0,0,1-.78-2.55V34.68q0-3.78,2.73-3.78a2.29,2.29,0,0,1,2,.88,4.88,4.88,0,0,1,.68,2.61,9.93,9.93,0,0,1,2.06-2.61,4.29,4.29,0,0,1,2.82-.88,7.25,7.25,0,0,1,3.42.88,2.65,2.65,0,0,1,1.67,2.34,2.21,2.21,0,0,1-.71,1.69,2.17,2.17,0,0,1-1.53.67,7.41,7.41,0,0,1-1.49-.38,7,7,0,0,0-2.08-.38,3.05,3.05,0,0,0-2,.65,4.16,4.16,0,0,0-1.21,1.92,13.69,13.69,0,0,0-.59,3C109.89,42.48,109.83,43.9,109.83,45.59Z"/><path class="cls-6" d="M129.54,31.39h.61V28c0-.9,0-1.61.08-2.12a3,3,0,0,1,.4-1.32,2.49,2.49,0,0,1,.94-.94,2.67,2.67,0,0,1,1.37-.36,2.78,2.78,0,0,1,1.93.8,2.39,2.39,0,0,1,.73,1.31,12.08,12.08,0,0,1,.15,2.18v3.81h2.05a2.61,2.61,0,0,1,1.82.57,1.84,1.84,0,0,1,.62,1.44,1.6,1.6,0,0,1-.89,1.58,5.77,5.77,0,0,1-2.55.45h-1.05v10.3a14.89,14.89,0,0,0,.1,2,2,2,0,0,0,.49,1.15,1.68,1.68,0,0,0,1.3.44,6.71,6.71,0,0,0,1.33-.18,7.39,7.39,0,0,1,1.32-.17,1.71,1.71,0,0,1,1.22.54,1.85,1.85,0,0,1,.54,1.35A2.25,2.25,0,0,1,140.57,53a9.93,9.93,0,0,1-4.24.72,7.31,7.31,0,0,1-4-.89,4.12,4.12,0,0,1-1.78-2.44,16.48,16.48,0,0,1-.42-4.16V35.43h-.73a2.68,2.68,0,0,1-1.85-.57,1.89,1.89,0,0,1-.63-1.46A1.81,1.81,0,0,1,127.6,32,2.92,2.92,0,0,1,129.54,31.39Z"/><circle class="cls-7" cx="164.4" cy="36.59" r="20.11"/><polyline class="cls-8" points="155.5 22.95 171.74 23 171.71 30.96"/><polyline class="cls-9" points="174.25 48.76 165.65 36.65 156.93 36.59 156.93 48.7"/><polyline class="cls-10" points="194.1 14.94 181.61 14.94 181.36 2.86"/></g></g></svg>